<?xml version="1.0" encoding="UTF-8" standalone="no"?>
<svg
   xmlns:dc="http://purl.org/dc/elements/1.1/"
   xmlns:cc="http://creativecommons.org/ns#"
   xmlns:rdf="http://www.w3.org/1999/02/22-rdf-syntax-ns#"
   xmlns:svg="http://www.w3.org/2000/svg"
   xmlns="http://www.w3.org/2000/svg"
   xmlns:sodipodi="http://sodipodi.sourceforge.net/DTD/sodipodi-0.dtd"
   xmlns:inkscape="http://www.inkscape.org/namespaces/inkscape"
   version="1.0"
   width="300.000000pt"
   height="110.000000pt"
   viewBox="0 0 300.000000 110.000000"
   preserveAspectRatio="xMidYMid meet"
   id="svg3336"
   inkscape:version="0.91 r13725"
   sodipodi:docname="wakeup.svg">
  <defs
     id="defs3358" />
  <sodipodi:namedview
     pagecolor="#ffffff"
     bordercolor="#666666"
     borderopacity="1"
     objecttolerance="10"
     gridtolerance="10"
     guidetolerance="10"
     inkscape:pageopacity="0"
     inkscape:pageshadow="2"
     inkscape:window-width="1920"
     inkscape:window-height="1057"
     id="namedview3356"
     showgrid="false"
     inkscape:zoom="3.3281159"
     inkscape:cx="21.619072"
     inkscape:cy="2.9005634"
     inkscape:window-x="-8"
     inkscape:window-y="-8"
     inkscape:window-maximized="1"
     inkscape:current-layer="svg3336" />
  <metadata
     id="metadata3338">
Created by potrace 1.10, written by Peter Selinger 2001-2011
<rdf:RDF>
  <cc:Work
     rdf:about="">
    <dc:format>image/svg+xml</dc:format>
    <dc:type
       rdf:resource="http://purl.org/dc/dcmitype/StillImage" />
  </cc:Work>
</rdf:RDF>
</metadata>
  <path
     style="fill:#000000;stroke:none"
     d="m 311.25,11.25 c -3.25,0 -6.03078,0.419322 -6.375,0.5 -8,1.875 -3.60942,0.912535 -8,1.875 -4.09539,0.897754 -15.375,3 -25,5 -9.625,2.125 -24.5,5.25 -33.125,7 -8.625,1.625 -20.625,4.25 -26.875,5.625 -6.125,1.375 -18.5,4 -27.5,5.625 -8.875,1.75 -21.25,4.25 -27.5,5.625 -23,5.125 -39,8.5 -49.375,10.625 -5.875,1.125 -16.75,3.375 -24.375,5 -7.5,1.625 -18.27434,4.471936 -20.77434,4.971936 -5.575297,1.49677 0,0 -5.575297,1.49677 9.837951,15.300062 10.538731,16.672937 10.538731,16.672937 0,0 2.748373,-0.663805 5.141997,-1.213527 C 89.102696,76.230038 89.75,76.5 108,72.25 l 11.25,-2.625 6.625,7.25 c 10.25,11 21,25.75 19.5,26.625 -0.75,0.5 0.5,1.875 2.875,3 l 4.25,2.25 -0.75,-3.5 c -0.75,-3.25 -3,-6.75 -3,-4.75 0,0.625 -3.25,-3.375 -7.375,-8.75 -4,-5.5 -9.875,-12.625 -13.125,-16 -3.125,-3.375 -5.625,-6.25 -5.375,-6.375 0.125,-0.125 5,-1.25 10.875,-2.5 5.875,-1.125 13.875,-3 18,-4 4,-1 15.75,-3.375 26,-5.5 10.375,-2 23.375,-4.75 29,-6.125 5.625,-1.25 21.125,-4.625 34.5,-7.5 13.375,-2.75 29.125,-6.25 35,-7.5 5.875,-1.375 13.875,-3 18,-3.875 L 301.5,31 313.875,28.25 c 14.375,-2.5 12.125,-17 -2.625,-17 z m 0.50977,1.707031 C 315.5933,12.969178 317.57812,13.75 319,14.625 c 0.625,0.25 1.5,1.5 2.25,2.875 2.125,3.875 -2,7.375 -11.25,9.375 l -8.125,1.625 c -11.57064,2.504673 -10.17631,2.199861 -9.53125,2.0625 -2.81213,0.444269 -6.79112,1.080592 -10.71875,2.0625 -6,1.375 -13.5,3 -16.625,3.625 -3.125,0.625 -12.375,2.625 -20.625,4.375 C 212.75,47.5 200,50.25 180.625,54.375 141.125,62.75 131.75,64.75 126,66.25 c -6,1.5 -6,1.5 -11,-3 -4.75,-4.25 -7.5,-5.625 -7.5,-3.625 0,0.625 2,2.375 4.375,4 2.375,1.625 4.375,3.375 4.375,3.75 0,0.5 -3.375,1.625 -7.5,2.375 -4.25,0.875 -8.375,1.875 -9.375,2.375 -13.161119,2.935907 -2.811295,0.872135 -13.161119,2.935907 -6.125,1.5 -17.099151,4.271599 -18.224151,4.271599 L 59.101861,65.538216 C 74.375,61.625 69.574103,62.814463 74.375,61.625 88.664224,58.736621 76.653709,61.225199 100.25,56.25 128.20941,50.671135 127.72164,50.801597 140,48.125 145.875,47 155.75,45 162,43.625 c 6.375,-1.375 13.125,-2.75 15,-3.125 2,-0.25 9.5,-1.875 16.75,-3.5 16,-3.75 26.25,-5.75 31.625,-6.375 C 227.5,30.25 235.25,28.75 242.5,27 c 7.25,-1.625 17.875,-4 23.75,-5.125 5.875,-1.125 15.125,-3.125 20.625,-4.375 5.5,-1.25 12.92811,-2.910201 16.25,-3.550781 C 306.73124,12.652476 309.625,13.25 310,13 c 0.62686,-0.03165 1.21212,-0.0447 1.75977,-0.04297 z m -15.45508,16.847657 c 0.0253,0.0088 -0.17528,0.06774 -0.67969,0.195312 -0.48904,0.117371 -1.54244,0.287244 -2.80273,0.486328 1.78059,-0.369816 3.41616,-0.704752 3.48242,-0.68164 z"
     transform="scale(0.8,0.8)"
     id="path3342"
     inkscape:connector-curvature="0"
     sodipodi:nodetypes="sssccccccccccscccccccsccccccccccccssccccccsccccssscccccccccccccssccscccc" />
  <path
     style="fill:#000000;stroke:none"
     inkscape:connector-curvature="0"
     id="path3352"
     d="m 267.6,60.6 c -3.9,3.8 -1.2,7.4 5.6,7.4 4.9,0 7.1,-1.8 6,-5 -1.2,-4 -8.6,-5.5 -11.6,-2.4 z m 9.3,0.9 c 1.9,1.1 1.2,3.5 -1.4,4.5 -2.5,1 -4.9,0.5 -7.3,-1.3 -3.3,-2.6 4.9,-5.6 8.7,-3.2 z" />
  <path
     style="fill:#000000;stroke:none"
     inkscape:connector-curvature="0"
     id="path3354"
     d="m 134.5,87.1 c -1.6,0.5 -7.5,1.8 -13,2.9 -18.1,3.7 -18.9,4.3 -13.1,9.9 3.7,3.6 3.3,3.6 19.1,0.1 4.4,-1 10.6,-2.4 13.8,-3 6.8,-1.4 7.3,-3 2.4,-7.8 -3.5,-3.4 -4.4,-3.6 -9.2,-2.1 z m 8.5,3.4 c 1.4,1.5 2,2.9 1.4,3.3 -0.9,0.9 -15,4.2 -26.3,6.3 l -6.4,1.2 -2.4,-2.9 c -2.9,-3.6 -2.9,-3.9 0.1,-4.2 1.4,-0.1 5.9,-1.1 10.2,-2.3 7.7,-2.1 15,-3.6 19,-3.8 1.1,0 3.1,1 4.4,2.4 z" />
</svg>
