<?xml version="1.0" encoding="UTF-8" standalone="no"?>
<!-- Created with Inkscape (http://www.inkscape.org/) -->

<svg
   xmlns:osb="http://www.openswatchbook.org/uri/2009/osb"
   xmlns:dc="http://purl.org/dc/elements/1.1/"
   xmlns:cc="http://creativecommons.org/ns#"
   xmlns:rdf="http://www.w3.org/1999/02/22-rdf-syntax-ns#"
   xmlns:svg="http://www.w3.org/2000/svg"
   xmlns="http://www.w3.org/2000/svg"
   xmlns:sodipodi="http://sodipodi.sourceforge.net/DTD/sodipodi-0.dtd"
   xmlns:inkscape="http://www.inkscape.org/namespaces/inkscape"
   id="svg3430"
   version="1.1"
   inkscape:version="0.91 r13725"
   width="300"
   height="140"
   viewBox="0 0 300 140"
   sodipodi:docname="wakeup.svg">
  <metadata
     id="metadata3436">
    <rdf:RDF>
      <cc:Work
         rdf:about="">
        <dc:format>image/svg+xml</dc:format>
        <dc:type
           rdf:resource="http://purl.org/dc/dcmitype/StillImage" />
        <dc:title></dc:title>
      </cc:Work>
    </rdf:RDF>
  </metadata>
  <defs
     id="defs3434">
    <marker
       inkscape:stockid="Arrow2Lend"
       orient="auto"
       refY="0"
       refX="0"
       id="Arrow2Lend"
       style="overflow:visible"
       inkscape:isstock="true">
      <path
         id="path4278"
         style="fill:#4d4d4d;fill-opacity:1;fill-rule:evenodd;stroke:#4d4d4d;stroke-width:0.625;stroke-linejoin:round;stroke-opacity:1"
         d="M 8.7185878,4.0337352 -2.2072895,0.01601326 8.7185884,-4.0017078 c -1.7454984,2.3720609 -1.7354408,5.6174519 -6e-7,8.035443 z"
         transform="matrix(-1.1,0,0,-1.1,-1.1,0)"
         inkscape:connector-curvature="0" />
    </marker>
    <marker
       inkscape:stockid="Arrow1Lend"
       orient="auto"
       refY="0"
       refX="0"
       id="Arrow1Lend"
       style="overflow:visible"
       inkscape:isstock="true">
      <path
         id="path4260"
         d="M 0,0 5,-5 -12.5,0 5,5 0,0 Z"
         style="fill:#000000;fill-opacity:1;fill-rule:evenodd;stroke:#000000;stroke-width:1pt;stroke-opacity:1"
         transform="matrix(-0.8,0,0,-0.8,-10,0)"
         inkscape:connector-curvature="0" />
    </marker>
    <marker
       inkscape:stockid="Arrow2Lstart"
       orient="auto"
       refY="0"
       refX="0"
       id="Arrow2Lstart"
       style="overflow:visible"
       inkscape:isstock="true">
      <path
         id="path4275"
         style="fill:#4d4d4d;fill-opacity:1;fill-rule:evenodd;stroke:#4d4d4d;stroke-width:0.625;stroke-linejoin:round;stroke-opacity:1"
         d="M 8.7185878,4.0337352 -2.2072895,0.01601326 8.7185884,-4.0017078 c -1.7454984,2.3720609 -1.7354408,5.6174519 -6e-7,8.035443 z"
         transform="matrix(1.1,0,0,1.1,1.1,0)"
         inkscape:connector-curvature="0" />
    </marker>
    <marker
       inkscape:stockid="Arrow1Lstart"
       orient="auto"
       refY="0"
       refX="0"
       id="Arrow1Lstart"
       style="overflow:visible"
       inkscape:isstock="true">
      <path
         id="path4257"
         d="M 0,0 5,-5 -12.5,0 5,5 0,0 Z"
         style="fill:#000000;fill-opacity:1;fill-rule:evenodd;stroke:#000000;stroke-width:1pt;stroke-opacity:1"
         transform="matrix(0.8,0,0,0.8,10,0)"
         inkscape:connector-curvature="0" />
    </marker>
    <linearGradient
       id="linearGradient4143"
       osb:paint="solid">
      <stop
         style="stop-color:#000000;stop-opacity:1;"
         offset="0"
         id="stop4145" />
    </linearGradient>
  </defs>
  <sodipodi:namedview
     pagecolor="#ffffff"
     bordercolor="#666666"
     borderopacity="1"
     objecttolerance="10"
     gridtolerance="10"
     guidetolerance="10"
     inkscape:pageopacity="0"
     inkscape:pageshadow="2"
     inkscape:window-width="1920"
     inkscape:window-height="1017"
     id="namedview3432"
     showgrid="false"
     inkscape:zoom="2.6369191"
     inkscape:cx="146.94734"
     inkscape:cy="65.386692"
     inkscape:window-x="1912"
     inkscape:window-y="-8"
     inkscape:window-maximized="1"
     inkscape:current-layer="svg3430" />
  <path
     style="fill:#000000"
     d="m 21.622087,107.54305 c -0.254034,-0.14563 -2.196295,-2.3248 -4.316136,-4.8426 -3.696996,-4.391036 -3.85055,-4.611076 -3.763371,-5.392626 0.04999,-0.44814 0.208119,-0.95605 0.351399,-1.1287 0.328429,-0.39573 -13.96939165,2.93788 125.360601,-29.228388 67.8047,-15.653658 121.25025,-27.889429 122.29341,-27.997728 5.22607,-0.542567 10.70096,1.24124 12.32736,4.016451 0.43325,0.739316 0.53416,1.208485 0.53416,2.48362 0,0.934646 -0.12527,1.810801 -0.30902,2.160765 -0.52651,1.002963 -1.91692,2.170385 -3.39684,2.852084 -1.1003,0.506844 -28.86633,6.988181 -124.25723,29.005009 C 78.884251,95.064724 23.263634,107.81978 22.845043,107.81554 c -0.418592,-0.004 -0.968923,-0.12687 -1.222956,-0.27249 z M 146.99329,76.99394 C 278.41372,46.639919 271.2025,48.382601 272.64907,46.627649 c 0.88898,-1.078459 1.02476,-1.840412 0.50708,-2.844972 -1.23872,-2.403623 -6.48112,-4.259396 -10.95418,-3.877694 -1.35443,0.115579 -18.6618,3.962457 -31.39082,6.977181 -1.73849,0.411738 -51.03189,11.798799 -109.5409,25.304578 C 62.761243,85.692511 14.875082,96.758894 14.856558,96.778694 c -0.01853,0.0198 1.600066,1.98404 3.596865,4.364986 l 3.630544,4.329 1.307951,-0.11641 c 0.719373,-0.0641 56.33999,-12.827066 123.601372,-28.362345 z"
     id="path3442"
     inkscape:connector-curvature="0"
     sodipodi:nodetypes="sssssscscsscssccssscscss" />
  <path
     style="fill:none;fill-opacity:1;stroke:#000000;stroke-width:0.5254333;stroke-miterlimit:4;stroke-dasharray:none;stroke-opacity:1"
     d="m 294.00651,94.563264 c 0.0157,-0.0825 0.10391,-0.22973 0.10769,-0.31251 0.001,-2.27435 -4.3803,-4.11849 -9.78645,-4.11872 -5.40687,-1.9e-4 -9.8683,1.90856 -9.86678,4.18322 0.13807,1.84212 0.0355,0.35175 0.0933,0.52611 m 19.45219,-0.2781 c -0.31314,2.17125 -4.58667,3.86546 -9.7572,3.8682 -4.91626,-0.003 -9.06522,-1.53888 -9.69499,-3.5901 -0.0157,0.0825 -0.0254,0.16524 -0.0292,0.24802 10e-4,2.27338 4.38264,4.11599 9.78646,4.11621 5.40454,2e-4 9.78652,-1.84253 9.78829,-4.11621 -0.004,-0.17602 0.0785,-0.15049 -0.0148,-1.17105 z"
     id="path4141"
     inkscape:connector-curvature="0"
     sodipodi:nodetypes="ccsccccccsccc" />
  <path
     style="fill:#4d4d4d;fill-rule:evenodd;stroke:#4d4d4d;stroke-width:0.43598369;stroke-linecap:butt;stroke-linejoin:miter;stroke-miterlimit:4;stroke-dasharray:1.30795107, 0.43598369;stroke-dashoffset:0;stroke-opacity:1;marker-start:url(#Arrow2Lstart);marker-end:url(#Arrow2Lend)"
     d="m 253.10197,46.43552 15.55436,23.408526 12.27759,18.477168"
     id="path4251"
     inkscape:connector-curvature="0"
     sodipodi:nodetypes="ccc" />
  <path
     id="path3454"
     style="fill:#00dd00;fill-opacity:1"
     d="m 57.871528,90.603114 c -0.172036,-0.10449 -0.144223,-0.0237 -0.579229,-1.68447 -0.157759,-0.60231 -0.274242,-1.1154 -0.258855,-1.14023 0.04242,-0.0684 0.53998,-0.0564 0.56694,0.0131 0.01235,0.0323 0.147209,0.57286 0.299501,1.20117 0.25496,1.05191 0.309392,1.23556 0.350077,1.18115 0.0081,-0.0102 0.12831,-0.49567 0.267217,-1.07752 0.138905,-0.58188 0.271316,-1.1267 0.29423,-1.21076 0.04106,-0.15063 0.04566,-0.15279 0.322514,-0.15279 0.232035,0 0.280852,0.0131 0.280852,0.0793 0,0.0982 -0.595408,2.38683 -0.667845,2.5671 -0.124227,0.30911 -0.55389,0.41874 -0.875402,0.22337 z m 1.683197,0.71427 c -0.129633,-0.061 -0.261021,-0.17284 -0.342826,-0.29144 -0.169542,-0.24578 -0.120361,-0.37685 0.599812,-1.59829 0.373027,-0.63268 0.703539,-1.15873 0.734467,-1.169 0.07428,-0.0247 0.378307,0.27125 0.378307,0.36825 0,0.0417 -0.284949,0.54006 -0.633217,1.10748 -0.348271,0.56742 -0.616087,1.0379 -0.595148,1.04553 0.02094,0.007 0.50613,-0.2727 1.078205,-0.623 0.572076,-0.35029 1.058503,-0.63687 1.080947,-0.63687 0.02245,0 0.123849,0.0847 0.225349,0.18834 0.160225,0.16353 0.175474,0.19689 0.115724,0.25315 -0.15607,0.14698 -2.292149,1.3555 -2.42511,1.37205 -0.07929,0.0102 -0.17672,0.003 -0.216513,-0.0161 z m -3.302048,-0.1654 c -1.365306,-0.78118 -2.02753,-1.18275 -2.02753,-1.2295 0,-0.0746 0.359493,-0.41856 0.408553,-0.39086 0.0218,0.0116 0.502304,0.30301 1.067778,0.646 0.565475,0.34299 1.038504,0.61328 1.051178,0.60065 0.01264,-0.0131 -0.264224,-0.49081 -0.615324,-1.06262 -0.351102,-0.57181 -0.638367,-1.05704 -0.638367,-1.07828 0,-0.0543 0.348144,-0.38718 0.403007,-0.38535 0.05818,10e-4 1.354037,2.22294 1.403809,2.40601 0.07573,0.27856 -0.269939,0.69575 -0.576501,0.69575 -0.06816,0 -0.282619,-0.0908 -0.476603,-0.2018 z m 1.765057,1.5663 c -0.15887,-0.0639 -0.301383,-0.27974 -0.301383,-0.4563 0,-0.44053 0.409815,-0.6697 0.787343,-0.44028 0.323278,0.19647 0.289185,0.70569 -0.05823,0.87 -0.169679,0.0802 -0.277756,0.0871 -0.427718,0.0266 z m 3.251498,0.37678 c -0.653704,-0.174 -1.242012,-0.35126 -1.307351,-0.39393 -0.240467,-0.15702 -0.258665,-0.69275 -0.03052,-0.89851 0.0932,-0.084 2.681673,-0.78613 2.750521,-0.74602 0.01947,0.0116 0.03539,0.14388 0.03539,0.29468 l 0,0.27405 -1.22664,0.29628 c -0.674653,0.16296 -1.22664,0.30911 -1.22664,0.32481 0,0.0157 0.52545,0.15242 1.167667,0.30383 0.642216,0.15142 1.194202,0.28496 1.226639,0.29676 0.03806,0.0145 0.05897,0.11961 0.05897,0.29854 0,0.27228 -0.0022,0.27698 -0.129734,0.27147 -0.07136,-0.003 -0.664587,-0.14796 -1.318293,-0.32196 z m -7.563048,0.049 0,-0.27854 1.22664,-0.29554 c 0.674651,-0.16255 1.226638,-0.30962 1.226638,-0.32683 0,-0.0172 -0.461759,-0.14111 -1.026131,-0.27522 -1.531346,-0.364 -1.400836,-0.30793 -1.418053,-0.60911 -0.008,-0.13952 0.0028,-0.27031 0.0236,-0.29074 0.02096,-0.0205 0.628941,0.11698 1.351103,0.30545 1.546318,0.40351 1.564866,0.41386 1.564866,0.87361 0,0.45128 -0.0186,0.4618 -1.497745,0.84758 -0.691469,0.18033 -1.300797,0.32789 -1.354061,0.32789 -0.08679,0 -0.09685,-0.0289 -0.09685,-0.27855 z m 6.114031,1.9254 c -0.719549,-1.22726 -0.758666,-1.32824 -0.618887,-1.59762 0.08656,-0.16682 0.346241,-0.33135 0.522987,-0.33135 0.08573,0 0.524985,0.22749 1.231014,0.63749 0.603755,0.35061 1.145822,0.67629 1.204593,0.72373 l 0.106845,0.0862 -0.196827,0.19616 c -0.178282,0.17768 -0.207066,0.19076 -0.305511,0.13879 -0.05979,-0.0315 -0.53996,-0.31985 -1.067073,-0.64068 -0.527114,-0.32082 -0.975432,-0.57672 -0.996266,-0.56865 -0.02084,0.007 0.245908,0.47635 0.592753,1.04066 0.346849,0.5643 0.630633,1.06265 0.630633,1.10747 0,0.0888 -0.278946,0.38207 -0.363456,0.38207 -0.02876,0 -0.362134,-0.52844 -0.740813,-1.17432 z m -4.15233,0.99011 c -0.09987,-0.10188 -0.170529,-0.214 -0.157034,-0.24904 0.01351,-0.035 0.302949,-0.51646 0.643231,-1.0698 0.340287,-0.55335 0.618702,-1.02583 0.618702,-1.04997 0,-0.0241 -0.05246,-0.0102 -0.116582,0.0323 -0.06413,0.0418 -0.554613,0.34268 -1.089997,0.66846 l -0.973427,0.59233 -0.183819,-0.1789 c -0.101105,-0.0984 -0.183821,-0.20414 -0.183821,-0.23502 0,-0.0857 2.260199,-1.3898 2.453279,-1.4155 0.213812,-0.0285 0.462815,0.13269 0.583224,0.37756 0.08291,0.1686 0.08349,0.18969 0.01032,0.37555 -0.101657,0.25808 -1.310343,2.30074 -1.373633,2.32142 -0.02687,0.009 -0.130563,-0.0674 -0.230425,-0.16935 z m 1.36672,0.65816 c -0.01628,-0.0263 0.124197,-0.63554 0.31215,-1.35402 0.40049,-1.53098 0.419165,-1.56494 0.860597,-1.56494 0.220533,0 0.28488,0.0206 0.40357,0.12934 0.127394,0.1167 0.17406,0.25478 0.47707,1.41189 0.184728,0.70542 0.323874,1.31374 0.309219,1.3518 -0.0337,0.0875 -0.468661,0.0961 -0.536318,0.0102 -0.02555,-0.0323 -0.169461,-0.57715 -0.31978,-1.21074 -0.150314,-0.63358 -0.288824,-1.16967 -0.307792,-1.19131 -0.01897,-0.0217 -0.17006,0.51791 -0.335757,1.19898 l -0.301268,1.23834 -0.266058,0.0145 c -0.146329,0.007 -0.279366,-0.007 -0.295633,-0.0337 z"
     inkscape:connector-curvature="0" />
</svg>
