<?xml version="1.0" encoding="UTF-8" standalone="no"?>
<!-- Created with Inkscape (http://www.inkscape.org/) -->

<svg
   xmlns:dc="http://purl.org/dc/elements/1.1/"
   xmlns:cc="http://creativecommons.org/ns#"
   xmlns:rdf="http://www.w3.org/1999/02/22-rdf-syntax-ns#"
   xmlns:svg="http://www.w3.org/2000/svg"
   xmlns="http://www.w3.org/2000/svg"
   xmlns:sodipodi="http://sodipodi.sourceforge.net/DTD/sodipodi-0.dtd"
   xmlns:inkscape="http://www.inkscape.org/namespaces/inkscape"
   id="svg3430"
   version="1.1"
   inkscape:version="0.91 r13725"
   width="192"
   height="67.5"
   viewBox="0 0 192 67.5"
   sodipodi:docname="icon.svg">
  <metadata
     id="metadata3436">
    <rdf:RDF>
      <cc:Work
         rdf:about="">
        <dc:format>image/svg+xml</dc:format>
        <dc:type
           rdf:resource="http://purl.org/dc/dcmitype/StillImage" />
        <dc:title />
      </cc:Work>
    </rdf:RDF>
  </metadata>
  <defs
     id="defs3434" />
  <sodipodi:namedview
     pagecolor="#ffffff"
     bordercolor="#666666"
     borderopacity="1"
     objecttolerance="10"
     gridtolerance="10"
     guidetolerance="10"
     inkscape:pageopacity="0"
     inkscape:pageshadow="2"
     inkscape:window-width="1920"
     inkscape:window-height="1017"
     id="namedview3432"
     showgrid="false"
     inkscape:zoom="3.7291667"
     inkscape:cx="98.197638"
     inkscape:cy="65.620205"
     inkscape:window-x="1912"
     inkscape:window-y="-8"
     inkscape:window-maximized="1"
     inkscape:current-layer="svg3430" />
  <path
     style="fill:#000000"
     d="M 41.271636,64.5375 C 40.191442,63.438082 37.8,60.434749 37.8,60.177588 c 0,-0.159971 0.09314,-0.368153 0.206971,-0.462627 C 38.264542,59.501197 61.384021,54.15 62.050007,54.15 c 0.434981,0 0.642298,0.186819 2.029729,1.829056 0.849895,1.00598 1.687714,2.018819 1.861819,2.250754 0.357408,0.476118 0.320703,1.1173 -0.07061,1.233544 C 65.216472,59.657769 42.096139,64.95 41.901262,64.95 c -0.123387,0 -0.406719,-0.185625 -0.629626,-0.4125 z M 53.722071,61.097505 65.219142,58.444907 63.726807,56.672454 C 62.595021,55.328224 62.148646,54.9 61.879234,54.9 c -0.29482,0 -21.943231,4.93417 -22.767501,5.189236 -0.21271,0.06582 0.02794,0.425135 1.253197,1.871116 0.834052,0.984306 1.593772,1.789672 1.688265,1.789701 0.09449,2.8e-5 5.345487,-1.193618 11.668876,-2.652548 z M 11.307181,60.857184 C 11.13238,60.756982 9.7959119,59.2575 8.3372505,57.525 5.7933507,54.503526 5.6876907,54.352123 5.747679,53.814336 5.7820761,53.505971 5.8908845,53.156476 5.9894756,53.037681 6.2154678,52.765377 -3.6228506,55.059226 92.25,32.925648 138.90636,22.154379 175.6822,13.734955 176.4,13.660435 c 3.59605,-0.37334 7.36332,0.854096 8.48244,2.763716 0.29812,0.508723 0.36756,0.831558 0.36756,1.708977 0,0.643129 -0.0862,1.246011 -0.21264,1.486821 -0.36229,0.690138 -1.31903,1.49344 -2.33736,1.962516 -0.75712,0.348759 -19.8629,4.808562 -85.501304,19.958325 -46.489468,10.730065 -84.761968,19.506817 -85.05,19.503894 -0.288033,-0.0029 -0.666715,-0.0873 -0.841515,-0.1875 z M 97.575,39.83637 c 90.43029,-20.886578 85.46826,-19.68744 86.46364,-20.895021 0.61171,-0.742087 0.70514,-1.266386 0.34892,-1.957623 -0.85236,-1.653931 -4.45965,-2.930887 -7.53756,-2.668238 -0.93198,0.07953 -12.84117,2.726563 -21.6,4.800992 -1.19625,0.283317 -35.115,8.118744 -75.375,17.412059 -40.26,9.293314 -73.2104284,16.908077 -73.2231742,16.921698 -0.012746,0.01362 1.1010042,1.365217 2.475,3.003549 l 2.4981742,2.978783 0.9,-0.08009 c 0.495,-0.04405 38.7675,-8.826299 85.05,-19.516113 z"
     id="path3442"
     inkscape:connector-curvature="0" />
</svg>
