<?xml version="1.0" encoding="UTF-8" standalone="no"?>
<!-- Created with Inkscape (http://www.inkscape.org/) -->

<svg
   xmlns:dc="http://purl.org/dc/elements/1.1/"
   xmlns:cc="http://creativecommons.org/ns#"
   xmlns:rdf="http://www.w3.org/1999/02/22-rdf-syntax-ns#"
   xmlns:svg="http://www.w3.org/2000/svg"
   xmlns="http://www.w3.org/2000/svg"
   xmlns:sodipodi="http://sodipodi.sourceforge.net/DTD/sodipodi-0.dtd"
   xmlns:inkscape="http://www.inkscape.org/namespaces/inkscape"
   id="svg3444"
   version="1.1"
   inkscape:version="0.91 r13725"
   width="100"
   height="100"
   viewBox="0 0 100 100"
   sodipodi:docname="icon.svg">
  <metadata
     id="metadata3450">
    <rdf:RDF>
      <cc:Work
         rdf:about="">
        <dc:format>image/svg+xml</dc:format>
        <dc:type
           rdf:resource="http://purl.org/dc/dcmitype/StillImage" />
        <dc:title></dc:title>
      </cc:Work>
    </rdf:RDF>
  </metadata>
  <defs
     id="defs3448" />
  <sodipodi:namedview
     pagecolor="#ffffff"
     bordercolor="#666666"
     borderopacity="1"
     objecttolerance="10"
     gridtolerance="10"
     guidetolerance="10"
     inkscape:pageopacity="0"
     inkscape:pageshadow="2"
     inkscape:window-width="1920"
     inkscape:window-height="1017"
     id="namedview3446"
     showgrid="false"
     inkscape:zoom="4.9201987"
     inkscape:cx="68.648786"
     inkscape:cy="36.544406"
     inkscape:window-x="1912"
     inkscape:window-y="-8"
     inkscape:window-maximized="1"
     inkscape:current-layer="svg3444"
     showguides="false" />
  <path
     id="path3355"
     style="fill:#000000"
     d="m 67.626948,91.499386 0,-5.854228 1.133979,0 1.13398,0 -0.04989,5.797686 -0.04988,5.797683 -1.084121,0.05656 -1.084119,0.05654 0,-5.854235 z m -7.164622,0.942714 0,-4.911519 -1.504754,0 c -1.44782,0 -1.509221,-0.01806 -1.623051,-0.471354 -0.06509,-0.259243 -0.06509,-0.683469 0,-0.942715 l 0.118296,-0.471354 4.144346,0 4.144345,0 0,0.942713 0,0.94271 -1.505155,0 -1.505158,0 -0.0503,4.854975 -0.0503,4.854971 -1.08412,0.05656 -1.084123,0.05654 0,-4.911521 z m -12.364837,4.638031 c -0.132711,-0.345814 2.473389,-10.236781 2.847743,-10.808119 0.72482,-1.106209 3.010973,-1.093634 3.741038,0.02061 0.407517,0.621954 2.992701,10.695755 2.795416,10.893037 -0.09392,0.09393 -0.626725,0.144675 -1.184037,0.112819 l -1.013295,-0.05792 -1.158951,-4.769209 C 53.487978,89.848279 52.915716,87.651396 52.8537,87.589386 52.693453,87.429138 52.654095,87.566239 51.597249,91.961358 51.07362,94.139023 50.55999,96.23892 50.455843,96.62779 l -0.189364,0.707038 -1.035633,0 c -0.695766,0 -1.067706,-0.08356 -1.133359,-0.254674 z m -19.373182,0.128958 c -0.06915,-0.06914 -0.125686,-2.611471 -0.125686,-5.649647 l 0,-5.523949 0.424219,-0.22838 c 0.270303,-0.145491 1.382036,-0.233429 3.063822,-0.242317 2.479806,-0.01298 2.690338,0.01468 3.477874,0.457423 0.603204,0.339173 0.973316,0.734212 1.319802,1.408681 0.464192,0.903604 0.483891,1.081861 0.547504,4.955577 0.03628,2.21004 0.01241,4.231675 -0.05304,4.492511 -0.112056,0.446488 -0.182168,0.470955 -1.197239,0.41789 l -1.078219,-0.05637 -0.09425,-4.400309 -0.0943,-4.400315 -0.529004,-0.454661 c -0.46305,-0.397972 -0.715766,-0.454657 -2.026835,-0.454657 l -1.497831,0 0,4.902108 0,4.902109 -1.005559,0 c -0.553059,0 -1.062125,-0.05656 -1.131256,-0.125688 z m 56.703247,0.115271 c -1.179636,-0.15923 -1.838436,-0.571745 -2.229593,-1.396044 -0.243502,-0.513132 -0.299056,-1.364381 -0.299056,-4.580412 0,-3.803137 0.01607,-3.974001 0.431259,-4.5908 0.23721,-0.352356 0.682626,-0.766103 0.989851,-0.919438 0.652762,-0.325801 3.368847,-0.46844 4.612257,-0.242204 l 0.848442,0.154379 0,0.843224 0,0.843225 -2.073969,0.05135 c -2.438166,0.06035 -2.545329,0.134827 -2.545329,1.769883 l 0,1.089237 2.215377,0.05312 2.215378,0.05312 0,0.848442 0,0.848438 -2.215378,0.05312 -2.215377,0.05312 0,1.290728 c 0,1.707178 0.105714,1.783941 2.620339,1.902533 l 1.998959,0.09425 0.05746,0.790823 c 0.05555,0.764794 0.03696,0.793966 -0.565626,0.886142 -1.216428,0.186061 -2.898917,0.231483 -3.844996,0.103774 z m -9.609392,-5.62e-4 c -1.115229,-0.327816 -1.296049,-0.737827 -2.707313,-6.138895 -0.734781,-2.812087 -1.335964,-5.212983 -1.335964,-5.335326 0,-0.153024 0.365517,-0.204906 1.171801,-0.166312 l 1.171804,0.05615 1.156334,4.763479 c 0.635992,2.619917 1.203909,4.81105 1.262043,4.869185 0.13855,0.13855 0.139143,0.136265 1.3699,-5.005208 0.58226,-2.432423 1.100255,-4.489896 1.151095,-4.572159 0.128594,-0.208096 2.332699,-0.188714 2.332699,0.02061 0,0.491303 -2.700964,10.356659 -2.932661,10.711641 -0.486626,0.745542 -1.63514,1.0923 -2.639738,0.796987 z m -33.833021,0.06 c -0.362943,-0.02765 -1.020489,-0.09773 -1.461203,-0.155564 l -0.801308,-0.105147 0,-0.92545 0,-0.925453 2.04351,0.04141 c 2.311847,0.04687 2.670057,-0.09853 2.670057,-1.083691 0,-0.744585 -0.246775,-0.978292 -2.58854,-2.451315 -2.190795,-1.378067 -2.560478,-1.91596 -2.45247,-3.568378 0.06486,-0.99214 0.145404,-1.178123 0.750521,-1.73267 0.932375,-0.854453 1.935698,-1.089043 4.106318,-0.960105 2.430682,0.144363 2.47806,0.168653 2.408905,1.234319 l -0.05651,0.870609 -2.103858,-0.0632 c -1.929568,-0.05797 -2.136532,-0.03052 -2.498193,0.331158 -0.216869,0.216869 -0.394328,0.4857 -0.394328,0.597375 0,0.373823 1.048599,1.202832 2.715699,2.147004 2.052923,1.16268 2.43964,1.667613 2.528933,3.302011 0.057,1.043084 1.88e-4,1.329912 -0.373621,1.889646 -0.743588,1.113174 -2.4712,1.711879 -4.49393,1.557372 z m -20.30767,-0.0508 c -1.141747,-0.117985 -1.896987,-0.603508 -2.364292,-1.51995 -0.281306,-0.551685 -0.329657,-1.199538 -0.329657,-4.417349 0,-4.251414 0.12439,-4.768812 1.311063,-5.454315 0.74349,-0.429481 3.517794,-0.630363 4.815987,-0.348709 0.742529,0.161093 0.754173,0.176581 0.754173,1.003625 l 0,0.839998 -2.106263,0.09426 c -1.158443,0.05186 -2.172759,0.16115 -2.254033,0.242909 -0.08129,0.08177 -0.182675,0.696879 -0.22536,1.366936 l -0.07758,1.218292 2.284477,0 2.284481,0 0,0.94271 0,0.942717 -2.262514,0 -2.262515,0 0,1.225526 c 0,1.820509 0.219803,1.979698 2.733871,1.979698 l 1.979699,0 0,0.839898 c 0,0.8024 -0.02736,0.844142 -0.612763,0.934886 -1.074531,0.166565 -2.656252,0.213483 -3.668784,0.108872 z m -10.496422,-0.01721 c -0.71344,-0.07872 -1.3767681,-0.222738 -1.4740699,-0.320044 -0.097307,-0.0973 -0.1498925,-0.506253 -0.1168799,-0.90879 l 0.060002,-0.731882 1.6860941,0.04976 c 1.994482,0.05889 2.886906,-0.176719 3.044256,-0.803672 0.245787,-0.979253 0.182506,-1.042592 -3.18148,-3.183765 -1.392401,-0.886262 -1.8302729,-1.590615 -1.8302729,-2.944131 0,-1.283397 0.4385936,-2.064577 1.4375369,-2.56042 0.601657,-0.298625 1.130005,-0.360716 3.018781,-0.354678 1.621855,0.0051 2.377838,0.08063 2.592461,0.258765 0.352772,0.292763 0.407212,1.438398 0.07804,1.641848 -0.123739,0.07649 -1.106467,0.117106 -2.18388,0.09033 -1.639976,-0.04078 -2.017785,0.0046 -2.320378,0.278428 -0.790918,0.715771 -0.282152,1.354103 2.137804,2.682255 2.241145,1.23001 2.973936,2.355113 2.728025,4.188507 -0.275014,2.050473 -2.31019,2.989006 -5.675992,2.617527 z"
     inkscape:connector-curvature="0" />
  <path
     id="path3454"
     style="fill:#000000"
     d="m 46.562135,26.870438 c -1.543134,-0.9409 -1.29371,-0.213089 -5.195638,-15.16076 C 39.951428,6.2887578 38.906574,1.6707321 39.044598,1.4473996 c 0.380611,-0.61583274 4.843567,-0.50795566 5.085407,0.1229219 0.11152,0.2909405 1.320452,5.1558248 2.686492,10.8108515 2.286967,9.467395 2.775235,11.120353 3.140171,10.630608 0.07229,-0.097 1.150872,-4.461093 2.396904,-9.698029 1.24603,-5.2369347 2.433678,-10.1406103 2.639212,-10.8970571 0.368393,-1.355808 0.409507,-1.3753567 2.89293,-1.3753567 2.081344,0 2.51923,0.1241068 2.51923,0.7139474 0,0.8836951 -5.340766,21.4823164 -5.990527,23.1046484 -1.114266,2.782136 -4.968334,3.768931 -7.852282,2.0105 z m 15.098133,6.428696 c -1.16279,-0.550381 -2.341315,-1.555666 -3.075128,-2.623088 -1.520775,-2.212155 -1.079583,-3.391764 5.38028,-14.385132 3.346036,-5.694271 6.310684,-10.4288807 6.588108,-10.5213557 0.666366,-0.2221167 3.393391,2.441389 3.393391,3.3143615 0,0.3753067 -2.555963,4.8607592 -5.679916,9.9676682 -3.123955,5.106914 -5.526246,9.341483 -5.338432,9.410158 0.18781,0.06867 4.539957,-2.454576 9.671421,-5.607224 5.131463,-3.152648 9.494667,-5.732085 9.696005,-5.732085 0.201353,0 1.110956,0.762827 2.021367,1.695171 1.437201,1.47183 1.573969,1.772024 1.038053,2.278441 -1.399876,1.322825 -20.56039,12.199931 -21.753026,12.348833 -0.711207,0.08879 -1.585165,0.02315 -1.942123,-0.145746 z M 32.041188,31.810452 C 19.794502,24.779584 13.854406,21.165283 13.854406,20.744554 c 0,-0.671703 3.224627,-3.767133 3.664684,-3.51786 0.195569,0.110795 4.505621,2.727161 9.577877,5.81416 5.072258,3.087003 9.3153,5.519717 9.428981,5.406034 0.1137,-0.113663 -2.370048,-4.417429 -5.519403,-9.563888 -3.14935,-5.146461 -5.726098,-9.51365 -5.726098,-9.704865 0,-0.4886087 3.122823,-3.4846467 3.61493,-3.4681668 0.521814,0.017494 12.145618,20.0070678 12.592064,21.6547178 0.679358,2.507237 -2.421342,6.262031 -5.171173,6.262031 -0.611284,0 -2.535069,-0.81732 -4.27508,-1.816265 z M 47.87359,45.907567 c -1.425037,-0.575776 -2.703367,-2.517748 -2.703367,-4.106795 0,-3.964907 3.675995,-6.027457 7.062406,-3.962616 2.899756,1.768102 2.593957,6.351411 -0.522433,7.830234 -1.522016,0.722245 -2.49145,0.782679 -3.836606,0.239186 z m 29.165673,3.391131 c -5.863675,-1.566 -11.140743,-3.161464 -11.726817,-3.545476 -2.156982,-1.413307 -2.320218,-6.234922 -0.273773,-8.086919 0.83605,-0.756619 24.054381,-7.075329 24.671951,-6.714304 0.174634,0.102037 0.31739,1.295513 0.31739,2.65214 l 0,2.466595 -11.002843,2.666579 c -6.05157,1.466618 -11.002854,2.782125 -11.002854,2.92335 0,0.141231 4.713241,1.371816 10.473871,2.734642 5.760627,1.362827 10.711888,2.56473 11.002842,2.6709 0.341511,0.124614 0.528984,1.076889 0.528984,2.686885 0,2.450669 -0.01975,2.492968 -1.163763,2.443362 -0.640085,-0.02765 -5.961302,-1.331757 -11.824978,-2.897754 z m -67.8399106,0.441205 0,-2.507025 11.0028556,-2.659898 c 6.05157,-1.462938 11.002854,-2.786649 11.002854,-2.941576 0,-0.154915 -4.14194,-1.269575 -9.204311,-2.477 C 8.2647023,35.878218 9.4353572,36.382779 9.2809376,33.672086 c -0.071519,-1.255186 0.0237,-2.432711 0.2115937,-2.616727 0.1878653,-0.184001 5.6415517,1.053127 12.1192747,2.749204 13.870319,3.631701 14.036715,3.724906 14.036715,7.862701 0,4.061714 -0.166846,4.156453 -13.434634,7.62853 -6.202418,1.623128 -11.668045,2.951138 -12.14583,2.951138 -0.7783889,0 -0.8687046,-0.260654 -0.8687046,-2.507029 z M 64.041701,67.068984 c -6.4543,-11.045636 -6.805165,-11.954432 -5.551355,-14.379025 0.77639,-1.501378 3.105744,-2.982146 4.691136,-2.982146 0.768894,0 4.709084,2.047347 11.042099,5.73754 5.415633,3.155643 10.277931,6.0868 10.805097,6.513672 l 0.958481,0.776132 -1.765521,1.765525 c -1.599181,1.599179 -1.857375,1.716884 -2.740421,1.249276 -0.536201,-0.283935 -4.843396,-2.878772 -9.571554,-5.766301 -4.728154,-2.887533 -8.749536,-5.190647 -8.936407,-5.118031 -0.186851,0.07262 2.205761,4.287417 5.316951,9.366234 3.111192,5.078821 5.656712,9.564269 5.656712,9.967668 0,0.799535 -2.502131,3.438604 -3.260176,3.438604 -0.258032,0 -3.248314,-4.756117 -6.645042,-10.569148 z m -37.24606,8.911264 c -0.895761,-0.917345 -1.529625,-1.925975 -1.408585,-2.241401 0.121032,-0.315432 2.717429,-4.648263 5.769754,-9.628519 3.052321,-4.980256 5.549679,-9.232714 5.549679,-9.449906 0,-0.217207 -0.470539,-0.08658 -1.045644,0.290234 -0.575103,0.376822 -4.974834,3.084165 -9.777184,6.016308 l -8.731546,5.331181 -1.648854,-1.610065 c -0.906867,-0.885535 -1.648855,-1.837469 -1.648855,-2.115408 0,-0.771327 20.273804,-12.508531 22.005709,-12.739863 1.917866,-0.256168 4.151414,1.194678 5.231471,3.398215 0.743754,1.517399 0.748936,1.707246 0.09231,3.379909 -0.911916,2.322981 -11.753668,20.707532 -12.321384,20.893595 -0.241021,0.07899 -1.171108,-0.606933 -2.066872,-1.52428 z m 12.25937,5.923722 c -0.145915,-0.236082 1.114081,-5.720055 2.799965,-12.18662 3.592355,-13.779265 3.759878,-14.084924 7.719478,-14.084924 1.978174,0 2.555351,0.185553 3.619988,1.163765 1.142672,1.049908 1.561316,2.293092 4.27928,12.707429 1.656981,6.349011 2.905125,11.82399 2.77365,12.166616 -0.302333,0.787857 -4.203832,0.864064 -4.810718,0.09398 C 55.20737,81.473274 53.9166,76.569598 52.568269,70.867161 51.219931,65.16472 49.977531,60.339756 49.80738,60.14502 49.637232,59.950297 48.281962,64.806354 46.795684,70.936281 l -2.702336,11.145324 -2.386531,0.125799 c -1.312589,0.06921 -2.505905,-0.06734 -2.651806,-0.303423 z"
     inkscape:connector-curvature="0" />
</svg>
